<svg xmlns="http://www.w3.org/2000/svg" width="35" height="35" viewBox="0 0 35 35"><defs><style>.a{fill:#55acee;}.b{fill:#f1f2f2;}</style></defs><g transform="translate(-0.001)"><circle class="a" cx="17.5" cy="17.5" r="17.5" transform="translate(0.001 0)"/><g transform="translate(7.857 10.637)"><path class="b" d="M45.444,35.985a8.326,8.326,0,0,1-2.4.656,4.185,4.185,0,0,0,1.835-2.308,8.354,8.354,0,0,1-2.65,1.012,4.177,4.177,0,0,0-7.112,3.807,11.847,11.847,0,0,1-8.6-4.361,4.178,4.178,0,0,0,1.291,5.572,4.144,4.144,0,0,1-1.89-.523c0,.018,0,.035,0,.053a4.176,4.176,0,0,0,3.348,4.092,4.19,4.19,0,0,1-1.885.072,4.178,4.178,0,0,0,3.9,2.9A8.425,8.425,0,0,1,25.1,48.684a11.868,11.868,0,0,0,18.271-10c0-.181,0-.361-.012-.54a8.463,8.463,0,0,0,2.083-2.16Z" transform="translate(-25.103 -34.028)"/></g></g></svg>